# xmcd
#
# Track frame offsets:
#	150
#	17008
#	39151
#	74175
#	94525
#	115768
#	135664
#	152820
#	174063
#	200303
#	218663
#	231691
#	253798
#	278305
#
# Disc length: 3927 seconds
#
# Revision: 0
# Processed by: cddbd v1.5.2PL0 Copyright (c) Steve Scherf et al.
# Submitted via: EasyCDDAExtractor 12.0.4.1
#
DISCID=b90f550e
DTITLE=Kiss - Live At Madison Square GardenOctober 10 2009 [CD.1)
DYEAR=2008
DGENRE=Hard Rock
TTITLE0=Deuce
TTITLE1=Strutter
TTITLE2=Let Me Go Rock 'n' Roll
TTITLE3=Hotter Than Hell
TTITLE4=Got To Choose
TTITLE5=Modern Day Delilah
TTITLE6=C'mon And Love Me
TTITLE7=She
TTITLE8=Tommy Thayer Guitar Solo
TTITLE9=Parasite
TTITLE10=100.000 Years
TTITLE11=Eric Singer Drum Solo
TTITLE12=100.000 Years and band Jam
TTITLE13=100.000 Years (Continues)
EXTD=
EXTT0=
EXTT1=
EXTT2=
EXTT3=
EXTT4=
EXTT5=
EXTT6=
EXTT7=
EXTT8=
EXTT9=
EXTT10=
EXTT11=
EXTT12=
EXTT13=
PLAYORDER=
